# xmcd
#
# Track frame offsets: 
#        150
#        18736
#        37965
#        50634
#        76960
#        97330
#        117687
#        131218
#        144876
#        162144
#        179378
#        194218
#
# Disc length: 2754 seconds
#
# Revision: 0
# Processed by: cddbd v1.5.2PL0 Copyright (c) Steve Scherf et al.
# Submitted via: ExactAudioCopy v0.95b3
#
DISCID=b30ac00c
DTITLE=Witchdoctors - Strong Medicine
DYEAR=1900
DGENRE=Blues
TTITLE0=You're So Wicked
TTITLE1=Fightin' It Everyday
TTITLE2=My Baby Calls Me Honey
TTITLE3=Don't Worry Me Baby
TTITLE4=I Don't Know
TTITLE5=Gotta Have Somebody
TTITLE6=Free
TTITLE7=What's Goin' On
TTITLE8=Just Gone Bad
TTITLE9=Baby Can't Help It
TTITLE10=No Matter What I Try To Do
TTITLE11=In This World
EXTD=
EXTT0=
EXTT1=
EXTT2=
EXTT3=
EXTT4=
EXTT5=
EXTT6=
EXTT7=
EXTT8=
EXTT9=
EXTT10=
EXTT11=
PLAYORDER=
